<mxfile host="app.diagrams.net" modified="2024-02-15T09:56:38.350Z" agent="Mozilla/5.0 (Windows NT 10.0; Win64; x64) AppleWebKit/537.36 (KHTML, like Gecko) Chrome/121.0.0.0 Safari/537.36" etag="6TGKzPrq-gBUElo5oLp9" version="23.1.4" type="github">
  <diagram name="Page-1" id="Ggp5vJnNv3NEFr9DOHgk">
    <mxGraphModel dx="1050" dy="609" grid="1" gridSize="10" guides="1" tooltips="1" connect="1" arrows="1" fold="1" page="1" pageScale="1" pageWidth="850" pageHeight="1100" math="0" shadow="0">
      <root>
        <mxCell id="0" />
        <mxCell id="1" parent="0" />
        <mxCell id="SLHOG6Y4de0ulLOJy8oc-1" value="Identification" style="rounded=1;whiteSpace=wrap;html=1;fillColor=#fff2cc;strokeColor=none;opacity=80;horizontal=0;fontStyle=1" vertex="1" parent="1">
          <mxGeometry x="230" y="200" width="45" height="110" as="geometry" />
        </mxCell>
        <mxCell id="SLHOG6Y4de0ulLOJy8oc-2" value="&lt;span style=&quot;font-size:9.0pt;mso-bidi-font-size:&lt;br/&gt;10.0pt;line-height:107%;font-family:&amp;quot;Arial&amp;quot;,sans-serif;mso-fareast-font-family:&lt;br/&gt;Calibri;mso-fareast-theme-font:minor-latin;color:black;mso-themecolor:text1;&lt;br/&gt;mso-ansi-language:EN-AU;mso-fareast-language:EN-US;mso-bidi-language:AR-SA&quot; lang=&quot;EN-AU&quot;&gt;Records identified from:&lt;br&gt;&lt;b&gt;Scopus&lt;/b&gt; (n = 787)&lt;br&gt;&lt;/span&gt;" style="rounded=1;whiteSpace=wrap;html=1;fillColor=none;strokeColor=#333333;" vertex="1" parent="1">
          <mxGeometry x="290" y="200" width="230.62" height="110" as="geometry" />
        </mxCell>
        <mxCell id="SLHOG6Y4de0ulLOJy8oc-4" value="Records screened&lt;br&gt;(n = 364)" style="rounded=1;whiteSpace=wrap;html=1;fillColor=none;strokeColor=#333333;" vertex="1" parent="1">
          <mxGeometry x="290" y="340" width="230.62" height="60" as="geometry" />
        </mxCell>
        <mxCell id="SLHOG6Y4de0ulLOJy8oc-5" value="&lt;span style=&quot;font-size:9.0pt;mso-bidi-font-size:&lt;br/&gt;10.0pt;line-height:107%;font-family:&amp;quot;Arial&amp;quot;,sans-serif;mso-fareast-font-family:&lt;br/&gt;Calibri;mso-fareast-theme-font:minor-latin;color:black;mso-themecolor:text1;&lt;br/&gt;mso-ansi-language:EN-AU;mso-fareast-language:EN-US;mso-bidi-language:AR-SA&quot; lang=&quot;EN-AU&quot;&gt;Records&lt;br&gt;excluded based on title and asbtract&lt;br&gt;(n = 423)&lt;br&gt;&lt;/span&gt;" style="rounded=1;whiteSpace=wrap;html=1;fillColor=none;strokeColor=#333333;" vertex="1" parent="1">
          <mxGeometry x="570" y="340" width="230.62" height="60" as="geometry" />
        </mxCell>
        <mxCell id="SLHOG6Y4de0ulLOJy8oc-7" value="Screening" style="rounded=1;whiteSpace=wrap;html=1;fillColor=#d5e8d4;strokeColor=none;opacity=80;horizontal=0;fontStyle=1" vertex="1" parent="1">
          <mxGeometry x="230" y="340" width="45" height="150" as="geometry" />
        </mxCell>
        <mxCell id="SLHOG6Y4de0ulLOJy8oc-8" value="&lt;div&gt;Reports assessed for eligibility&lt;/div&gt;&lt;div&gt;(n = 114)&lt;/div&gt;" style="rounded=1;whiteSpace=wrap;html=1;fillColor=none;strokeColor=#333333;" vertex="1" parent="1">
          <mxGeometry x="290" y="430" width="230.62" height="60" as="geometry" />
        </mxCell>
        <mxCell id="SLHOG6Y4de0ulLOJy8oc-9" value="Included" style="rounded=1;whiteSpace=wrap;html=1;fillColor=#f8cecc;strokeColor=none;opacity=80;horizontal=0;fontStyle=1" vertex="1" parent="1">
          <mxGeometry x="230" y="520" width="45" height="110" as="geometry" />
        </mxCell>
        <mxCell id="SLHOG6Y4de0ulLOJy8oc-10" value="&lt;span style=&quot;font-size:9.0pt;mso-bidi-font-size:&lt;br/&gt;10.0pt;line-height:107%;font-family:&amp;quot;Arial&amp;quot;,sans-serif;mso-fareast-font-family:&lt;br/&gt;Calibri;mso-fareast-theme-font:minor-latin;color:black;mso-themecolor:text1;&lt;br/&gt;mso-ansi-language:EN-AU;mso-fareast-language:EN-US;mso-bidi-language:AR-SA&quot; lang=&quot;EN-AU&quot;&gt;Records identified from:&lt;br&gt;&lt;b&gt;Scopus&lt;/b&gt; (n = 787)&lt;br&gt;&lt;/span&gt;" style="rounded=1;whiteSpace=wrap;html=1;fillColor=none;strokeColor=#333333;" vertex="1" parent="1">
          <mxGeometry x="290" y="520" width="230.62" height="110" as="geometry" />
        </mxCell>
        <mxCell id="SLHOG6Y4de0ulLOJy8oc-11" value="&lt;span style=&quot;font-size:9.0pt;mso-bidi-font-size:&lt;br/&gt;10.0pt;line-height:107%;font-family:&amp;quot;Arial&amp;quot;,sans-serif;mso-fareast-font-family:&lt;br/&gt;Calibri;mso-fareast-theme-font:minor-latin;color:black;mso-themecolor:text1;&lt;br/&gt;mso-ansi-language:EN-AU;mso-fareast-language:EN-US;mso-bidi-language:AR-SA&quot; lang=&quot;EN-AU&quot;&gt;Records&lt;br&gt;excluded based on full text&lt;br&gt;(n = 423)&lt;br&gt;&lt;/span&gt;" style="rounded=1;whiteSpace=wrap;html=1;fillColor=none;strokeColor=#333333;" vertex="1" parent="1">
          <mxGeometry x="570" y="430" width="230.62" height="60" as="geometry" />
        </mxCell>
      </root>
    </mxGraphModel>
  </diagram>
</mxfile>
